<svg id="Layer_1" data-name="Layer 1" xmlns="http://www.w3.org/2000/svg" viewBox="0 0 200 200"><defs><style>.cls-1{fill:#231f20;}</style></defs><title>Wondicon - UI (Free)</title><path class="cls-1" d="M170.69,160.15H29.31a5,5,0,0,1-5-5V39.66a5,5,0,0,1,5-5H170.69a5,5,0,0,1,5,5V155.15A5,5,0,0,1,170.69,160.15Zm-136.38-10H165.69V44.66H34.31Z"/><path class="cls-1" d="M50,55a5,5,0,0,1-5-5V29.31a5,5,0,0,1,10,0V50A5,5,0,0,1,50,55Z"/><path class="cls-1" d="M150,55a5,5,0,0,1-5-5V29.31a5,5,0,0,1,10,0V50A5,5,0,0,1,150,55Z"/><path class="cls-1" d="M162,175.69H38.06a13.77,13.77,0,0,1-13.75-13.75V150a5,5,0,0,1,10,0v11.94a3.75,3.75,0,0,0,3.75,3.75H162a3.75,3.75,0,0,0,3.74-3.75V150a5,5,0,0,1,10,0v11.94A13.77,13.77,0,0,1,162,175.69Z"/><path class="cls-1" d="M50,80a4.66,4.66,0,0,1-1-.1,5,5,0,0,1-.93-.28,5.14,5.14,0,0,1-.87-.46,5,5,0,0,1-.76-.62,5.57,5.57,0,0,1-.62-.76,6,6,0,0,1-.46-.87A5,5,0,0,1,45.1,76a4.85,4.85,0,0,1,0-2,5,5,0,0,1,.28-.93,6,6,0,0,1,.46-.87,4.86,4.86,0,0,1,1.38-1.38,5.14,5.14,0,0,1,.87-.46,5,5,0,0,1,3.82,0,5.46,5.46,0,0,1,.86.46,5.07,5.07,0,0,1,1.39,1.38,6,6,0,0,1,.46.87,5,5,0,0,1,.28.93,4.85,4.85,0,0,1,0,2,5,5,0,0,1-.28.93,6,6,0,0,1-.46.87,5.07,5.07,0,0,1-1.39,1.38,5.46,5.46,0,0,1-.86.46,5,5,0,0,1-.93.28A4.66,4.66,0,0,1,50,80Z"/><path class="cls-1" d="M66.67,80a4.59,4.59,0,0,1-1-.1,5.32,5.32,0,0,1-.94-.28,5.46,5.46,0,0,1-.86-.46,5,5,0,0,1-.76-.62,5.57,5.57,0,0,1-.62-.76,5.19,5.19,0,0,1-.46-.87,5,5,0,0,1-.29-.93,5.38,5.38,0,0,1,0-2,5,5,0,0,1,.29-.93,5.19,5.19,0,0,1,.46-.87,4.86,4.86,0,0,1,1.38-1.38,5.46,5.46,0,0,1,.86-.46,5.32,5.32,0,0,1,.94-.28,5,5,0,0,1,2,0,5.22,5.22,0,0,1,.93.28,5.46,5.46,0,0,1,.86.46,4.57,4.57,0,0,1,.76.62A5,5,0,0,1,71.66,75a5.41,5.41,0,0,1-.09,1,5,5,0,0,1-.29.93,5.19,5.19,0,0,1-.46.87,5,5,0,0,1-.62.76,4.57,4.57,0,0,1-.76.62,5.46,5.46,0,0,1-.86.46,5.22,5.22,0,0,1-.93.28A4.73,4.73,0,0,1,66.67,80Z"/><path class="cls-1" d="M83.33,80a4.57,4.57,0,0,1-1-.1,5.08,5.08,0,0,1-.94-.28,5.46,5.46,0,0,1-.86-.46,5.13,5.13,0,0,1-.76-.62A5,5,0,0,1,78.33,75a4.66,4.66,0,0,1,.1-1,5,5,0,0,1,.28-.93,5.24,5.24,0,0,1,.47-.87,5.57,5.57,0,0,1,.62-.76,4.57,4.57,0,0,1,.76-.62,5.46,5.46,0,0,1,.86-.46,5.08,5.08,0,0,1,.94-.28,4.92,4.92,0,0,1,2,0,5.32,5.32,0,0,1,.94.28,5.46,5.46,0,0,1,.86.46,5,5,0,0,1,.76.62,5.57,5.57,0,0,1,.62.76,6,6,0,0,1,.46.87,5,5,0,0,1,.28.93,4.66,4.66,0,0,1,.1,1,5,5,0,0,1-1.46,3.54,5.71,5.71,0,0,1-.76.62,5.46,5.46,0,0,1-.86.46,5.32,5.32,0,0,1-.94.28A4.59,4.59,0,0,1,83.33,80Z"/><path class="cls-1" d="M133.33,80a4.57,4.57,0,0,1-1-.1,5.08,5.08,0,0,1-.94-.28,5.46,5.46,0,0,1-.86-.46,4.57,4.57,0,0,1-.76-.62,5.78,5.78,0,0,1-.63-.76,6,6,0,0,1-.46-.87,5,5,0,0,1-.28-.93,4.85,4.85,0,0,1,0-2,5,5,0,0,1,.28-.93,6,6,0,0,1,.46-.87,5.78,5.78,0,0,1,.63-.76,4.57,4.57,0,0,1,.76-.62,5.46,5.46,0,0,1,.86-.46,5.08,5.08,0,0,1,.94-.28,4.92,4.92,0,0,1,1.95,0,5,5,0,0,1,.93.28,5.14,5.14,0,0,1,.87.46,4.86,4.86,0,0,1,1.38,1.38,5.19,5.19,0,0,1,.46.87,5,5,0,0,1,.29.93,5.38,5.38,0,0,1,0,2,5,5,0,0,1-.29.93,5.19,5.19,0,0,1-.46.87,4.86,4.86,0,0,1-1.38,1.38,5.14,5.14,0,0,1-.87.46,5,5,0,0,1-.93.28A4.59,4.59,0,0,1,133.33,80Z"/><path class="cls-1" d="M116.67,80a5,5,0,0,1-3.54-1.46,5.1,5.1,0,0,1-.62-.77,4.74,4.74,0,0,1-.46-.86,5,5,0,0,1-.29-.93,5.41,5.41,0,0,1-.09-1,5,5,0,0,1,6.91-4.62,5.46,5.46,0,0,1,.86.46,4.57,4.57,0,0,1,.76.62,5,5,0,0,1,.62.76,5.19,5.19,0,0,1,.46.87,5,5,0,0,1,.29.93,4.85,4.85,0,0,1,0,2,5,5,0,0,1-.29.93,4.74,4.74,0,0,1-.46.86,4.73,4.73,0,0,1-1.38,1.39,5.46,5.46,0,0,1-.86.46,5.08,5.08,0,0,1-.94.28A4.57,4.57,0,0,1,116.67,80Z"/><path class="cls-1" d="M100,80a4.66,4.66,0,0,1-1-.1,5,5,0,0,1-.93-.28,5.46,5.46,0,0,1-.86-.46,4.65,4.65,0,0,1-.77-.62A5,5,0,0,1,95,75a4.66,4.66,0,0,1,.1-1,5,5,0,0,1,.28-.93,6,6,0,0,1,.46-.87,5.57,5.57,0,0,1,.62-.76,4.65,4.65,0,0,1,.77-.62,5.46,5.46,0,0,1,.86-.46,5,5,0,0,1,3.82,0,5.46,5.46,0,0,1,.86.46,4.57,4.57,0,0,1,.76.62,5,5,0,0,1,.63.76,6,6,0,0,1,.46.87,5,5,0,0,1,.28.93,4.66,4.66,0,0,1,.1,1,5,5,0,0,1-1.47,3.54,4.57,4.57,0,0,1-.76.62,5.46,5.46,0,0,1-.86.46,5,5,0,0,1-.93.28A4.66,4.66,0,0,1,100,80Z"/><path class="cls-1" d="M150,80a5,5,0,0,1-3.54-8.54,5,5,0,0,1,.76-.62,5.14,5.14,0,0,1,.87-.46,5,5,0,0,1,3.82,0,6,6,0,0,1,.87.46,5,5,0,0,1,.76,7.7A5.07,5.07,0,0,1,150,80Z"/><path class="cls-1" d="M50,100a4.66,4.66,0,0,1-1-.1,5,5,0,0,1-.93-.28,5.14,5.14,0,0,1-.87-.46,5,5,0,0,1-.76-.62,5.1,5.1,0,0,1-.62-.77,5.46,5.46,0,0,1-.46-.86A5,5,0,0,1,45.1,96a4.85,4.85,0,0,1,0-2,5,5,0,0,1,.28-.93,6,6,0,0,1,.46-.87,4.86,4.86,0,0,1,1.38-1.38,5.14,5.14,0,0,1,.87-.46,5,5,0,0,1,3.82,0,5.46,5.46,0,0,1,.86.46,5.07,5.07,0,0,1,1.39,1.38,6,6,0,0,1,.46.87,5,5,0,0,1,.28.93,4.85,4.85,0,0,1,0,2,5,5,0,0,1-.28.93,5.46,5.46,0,0,1-.46.86,4.93,4.93,0,0,1-1.39,1.39,5.46,5.46,0,0,1-.86.46,5,5,0,0,1-.93.28A4.66,4.66,0,0,1,50,100Z"/><path class="cls-1" d="M66.67,100a4.59,4.59,0,0,1-1-.1,5.32,5.32,0,0,1-.94-.28,5.46,5.46,0,0,1-.86-.46,4.86,4.86,0,0,1-1.38-1.38,5.19,5.19,0,0,1-.46-.87,5,5,0,0,1-.29-.93,5.38,5.38,0,0,1,0-2,5,5,0,0,1,.29-.93,5.19,5.19,0,0,1,.46-.87,5.57,5.57,0,0,1,.62-.76,5.71,5.71,0,0,1,.76-.62,5.46,5.46,0,0,1,.86-.46,5.32,5.32,0,0,1,.94-.28,5,5,0,0,1,2,0,5.22,5.22,0,0,1,.93.28,5.46,5.46,0,0,1,.86.46,5.13,5.13,0,0,1,.76.62,5.57,5.57,0,0,1,.62.76,5.19,5.19,0,0,1,.46.87,5,5,0,0,1,.29.93,5.38,5.38,0,0,1,0,2,5,5,0,0,1-.29.93,5.19,5.19,0,0,1-.46.87,5,5,0,0,1-.62.76,4.57,4.57,0,0,1-.76.62,5.46,5.46,0,0,1-.86.46,5.22,5.22,0,0,1-.93.28A4.73,4.73,0,0,1,66.67,100Z"/><path class="cls-1" d="M83.33,100a4.57,4.57,0,0,1-1-.1,5.08,5.08,0,0,1-.94-.28,5.46,5.46,0,0,1-.86-.46,4.57,4.57,0,0,1-.76-.62A5,5,0,0,1,78.33,95a4.66,4.66,0,0,1,.1-1,5,5,0,0,1,.28-.93,5.24,5.24,0,0,1,.47-.87,5,5,0,0,1,.62-.76,4.57,4.57,0,0,1,.76-.62,5.46,5.46,0,0,1,.86-.46,5.08,5.08,0,0,1,.94-.28,4.92,4.92,0,0,1,2,0,5.32,5.32,0,0,1,.94.28,5.46,5.46,0,0,1,.86.46,4.86,4.86,0,0,1,1.38,1.38,6,6,0,0,1,.46.87,5,5,0,0,1,.28.93,4.66,4.66,0,0,1,.1,1,5,5,0,0,1-2.22,4.16,5.46,5.46,0,0,1-.86.46,5.32,5.32,0,0,1-.94.28A4.59,4.59,0,0,1,83.33,100Z"/><path class="cls-1" d="M133.33,100a4.57,4.57,0,0,1-1-.1,5.08,5.08,0,0,1-.94-.28,5.46,5.46,0,0,1-.86-.46,4.57,4.57,0,0,1-.76-.62,5.78,5.78,0,0,1-.63-.76,6,6,0,0,1-.46-.87,5,5,0,0,1-.28-.93,4.66,4.66,0,0,1-.1-1,4.59,4.59,0,0,1,.1-1,5,5,0,0,1,.28-.93,6,6,0,0,1,.46-.87,5.69,5.69,0,0,1,.63-.75,4.17,4.17,0,0,1,.76-.63,5.46,5.46,0,0,1,.86-.46,5.08,5.08,0,0,1,.94-.28,4.92,4.92,0,0,1,1.95,0,5,5,0,0,1,.93.28,5.14,5.14,0,0,1,.87.46,4.54,4.54,0,0,1,.76.63,4.94,4.94,0,0,1,.62.75,5.19,5.19,0,0,1,.46.87,5,5,0,0,1,.29.93,5.33,5.33,0,0,1,.09,1,5.41,5.41,0,0,1-.09,1,5,5,0,0,1-.29.93,5.19,5.19,0,0,1-.46.87,4.86,4.86,0,0,1-1.38,1.38,5.14,5.14,0,0,1-.87.46,5,5,0,0,1-.93.28A4.59,4.59,0,0,1,133.33,100Z"/><path class="cls-1" d="M116.67,100a5,5,0,0,1-5-5,5.41,5.41,0,0,1,.09-1,5,5,0,0,1,.29-.93,4.74,4.74,0,0,1,.46-.86,5,5,0,0,1,6.07-1.85,5.46,5.46,0,0,1,.86.46,4.73,4.73,0,0,1,1.38,1.39,4.74,4.74,0,0,1,.46.86,5,5,0,0,1,.29.93,4.85,4.85,0,0,1,0,2,5,5,0,0,1-.29.93,5.19,5.19,0,0,1-.46.87,5,5,0,0,1-.62.76,4.57,4.57,0,0,1-.76.62,5.46,5.46,0,0,1-.86.46,5.08,5.08,0,0,1-.94.28A4.57,4.57,0,0,1,116.67,100Z"/><path class="cls-1" d="M100,100a4.66,4.66,0,0,1-1-.1,5,5,0,0,1-.93-.28,5.46,5.46,0,0,1-.86-.46,4.65,4.65,0,0,1-.77-.62,5,5,0,0,1-.62-.76,6,6,0,0,1-.46-.87A5,5,0,0,1,95.1,96a4.85,4.85,0,0,1,0-2,5,5,0,0,1,.28-.93,6,6,0,0,1,.46-.87,5,5,0,0,1,.62-.76,4.65,4.65,0,0,1,.77-.62,5.46,5.46,0,0,1,.86-.46,5,5,0,0,1,3.82,0,5.46,5.46,0,0,1,.86.46,5.07,5.07,0,0,1,1.39,1.38,6,6,0,0,1,.46.87,5,5,0,0,1,.28.93,4.85,4.85,0,0,1,0,2,5,5,0,0,1-.28.93,6,6,0,0,1-.46.87,5.07,5.07,0,0,1-1.39,1.38,5.46,5.46,0,0,1-.86.46,5,5,0,0,1-.93.28A4.66,4.66,0,0,1,100,100Z"/><path class="cls-1" d="M150,100a4.66,4.66,0,0,1-1-.1,5,5,0,0,1-.93-.28,5.14,5.14,0,0,1-.87-.46,5.71,5.71,0,0,1-.76-.62,5,5,0,1,1,7.08,0,5.71,5.71,0,0,1-.76.62,6,6,0,0,1-.87.46,5,5,0,0,1-.93.28A4.66,4.66,0,0,1,150,100Z"/><path class="cls-1" d="M50,120a4.66,4.66,0,0,1-1-.1,5,5,0,0,1-.93-.28,5.14,5.14,0,0,1-.87-.46,4.86,4.86,0,0,1-1.38-1.38,6,6,0,0,1-.46-.87,5,5,0,0,1-.28-.93,4.85,4.85,0,0,1,0-2,5,5,0,0,1,.28-.93,6,6,0,0,1,.46-.87,4.86,4.86,0,0,1,1.38-1.38,5.14,5.14,0,0,1,.87-.46,5,5,0,0,1,3.82,0,5.46,5.46,0,0,1,.86.46,5.07,5.07,0,0,1,1.39,1.38,6,6,0,0,1,.46.87,5,5,0,0,1,.28.93,4.66,4.66,0,0,1,.1,1,5,5,0,0,1-1.47,3.54,4.57,4.57,0,0,1-.76.62,5.46,5.46,0,0,1-.86.46,5,5,0,0,1-.93.28A4.66,4.66,0,0,1,50,120Z"/><path class="cls-1" d="M66.67,120a4.59,4.59,0,0,1-1-.1,5.32,5.32,0,0,1-.94-.28,5.46,5.46,0,0,1-.86-.46,4.86,4.86,0,0,1-1.38-1.38,5.19,5.19,0,0,1-.46-.87,5,5,0,0,1-.29-.93,5.38,5.38,0,0,1,0-2,5,5,0,0,1,.29-.93,5.19,5.19,0,0,1,.46-.87,4.86,4.86,0,0,1,1.38-1.38,5.46,5.46,0,0,1,.86-.46,5.32,5.32,0,0,1,.94-.28,5,5,0,0,1,2,0,5.22,5.22,0,0,1,.93.28,5.46,5.46,0,0,1,.86.46,4.57,4.57,0,0,1,.76.62A5,5,0,0,1,71.66,115a5.41,5.41,0,0,1-.09,1,5,5,0,0,1-.29.93,5.19,5.19,0,0,1-.46.87,5,5,0,0,1-.62.76,4.57,4.57,0,0,1-.76.62,5.46,5.46,0,0,1-.86.46,5.22,5.22,0,0,1-.93.28A4.73,4.73,0,0,1,66.67,120Z"/><path class="cls-1" d="M83.33,120a4.57,4.57,0,0,1-1-.1,5.08,5.08,0,0,1-.94-.28,5.46,5.46,0,0,1-.86-.46,4.57,4.57,0,0,1-.76-.62,5,5,0,0,1-.62-.76,5.24,5.24,0,0,1-.47-.87,5,5,0,0,1-.28-.93,4.59,4.59,0,0,1-.1-1,4.73,4.73,0,0,1,.1-1,5,5,0,0,1,.28-.93,4.79,4.79,0,0,1,.47-.86,4.65,4.65,0,0,1,.62-.77,4.57,4.57,0,0,1,.76-.62,5.46,5.46,0,0,1,.86-.46,5.08,5.08,0,0,1,.94-.28,4.92,4.92,0,0,1,2,0,5.32,5.32,0,0,1,.94.28,5.46,5.46,0,0,1,.86.46,5,5,0,0,1,.76.62,4.65,4.65,0,0,1,.62.77,5.46,5.46,0,0,1,.46.86,5,5,0,0,1,.28.93,4.73,4.73,0,0,1,.1,1,4.59,4.59,0,0,1-.1,1,5,5,0,0,1-.28.93,6,6,0,0,1-.46.87,4.86,4.86,0,0,1-1.38,1.38,5.46,5.46,0,0,1-.86.46,5.32,5.32,0,0,1-.94.28A4.59,4.59,0,0,1,83.33,120Z"/><path class="cls-1" d="M133.33,120a4.57,4.57,0,0,1-1-.1,5.08,5.08,0,0,1-.94-.28,5.46,5.46,0,0,1-.86-.46,4.57,4.57,0,0,1-.76-.62,5,5,0,0,1,0-7.08,5.13,5.13,0,0,1,.76-.62,5.46,5.46,0,0,1,.86-.46,5.08,5.08,0,0,1,.94-.28,4.92,4.92,0,0,1,1.95,0,5,5,0,0,1,.93.28,5.14,5.14,0,0,1,.87.46,5.71,5.71,0,0,1,.76.62,5,5,0,0,1-.76,7.7,5.14,5.14,0,0,1-.87.46,5,5,0,0,1-.93.28A4.59,4.59,0,0,1,133.33,120Z"/><path class="cls-1" d="M116.67,120a5,5,0,0,1-5-5,5.5,5.5,0,0,1,.09-1,5,5,0,0,1,.29-.93,5.19,5.19,0,0,1,.46-.87,5,5,0,0,1,5.13-2.12,5.08,5.08,0,0,1,.94.28,5.46,5.46,0,0,1,.86.46,4.57,4.57,0,0,1,.76.62,5.08,5.08,0,0,1,1.47,3.54,5.34,5.34,0,0,1-.1,1,5,5,0,0,1-.29.93,4.83,4.83,0,0,1-.46.87,5,5,0,0,1-.62.76,4.57,4.57,0,0,1-.76.62,5.46,5.46,0,0,1-.86.46,5.08,5.08,0,0,1-.94.28A4.57,4.57,0,0,1,116.67,120Z"/><path class="cls-1" d="M100,120a4.66,4.66,0,0,1-1-.1,5,5,0,0,1-.93-.28,5.46,5.46,0,0,1-.86-.46,4.65,4.65,0,0,1-.77-.62,5,5,0,0,1-.62-.76,6,6,0,0,1-.46-.87,5,5,0,0,1-.28-.93,4.85,4.85,0,0,1,0-2,5,5,0,0,1,.28-.93,6,6,0,0,1,.46-.87,5,5,0,0,1,.62-.76,4.65,4.65,0,0,1,.77-.62,5.46,5.46,0,0,1,.86-.46,5,5,0,0,1,3.82,0,5.46,5.46,0,0,1,.86.46,5.07,5.07,0,0,1,1.39,1.38,6,6,0,0,1,.46.87,5,5,0,0,1,.28.93,4.85,4.85,0,0,1,0,2,5,5,0,0,1-.28.93,6,6,0,0,1-.46.87,5.07,5.07,0,0,1-1.39,1.38,5.46,5.46,0,0,1-.86.46,5,5,0,0,1-.93.28A4.66,4.66,0,0,1,100,120Z"/><path class="cls-1" d="M150,120a4.66,4.66,0,0,1-1-.1,5,5,0,0,1-.93-.28,5.14,5.14,0,0,1-.87-.46,5,5,0,0,1-.76-.62,5.1,5.1,0,0,1-.62-.77,5.46,5.46,0,0,1-.46-.86,5,5,0,0,1-.28-.93,4.85,4.85,0,0,1,0-2,5,5,0,0,1,.28-.93,6,6,0,0,1,.46-.87,5,5,0,0,1,.62-.76,5,5,0,0,1,7.08,0,5,5,0,0,1,.62.76,6,6,0,0,1,.46.87,5,5,0,0,1,.28.93,4.85,4.85,0,0,1,0,2,5,5,0,0,1-.28.93,5.46,5.46,0,0,1-.46.86,5.1,5.1,0,0,1-.62.77,5,5,0,0,1-.76.62,6,6,0,0,1-.87.46,5,5,0,0,1-.93.28A4.66,4.66,0,0,1,150,120Z"/><path class="cls-1" d="M50,140a4.66,4.66,0,0,1-1-.1,5,5,0,0,1-.93-.28,5.14,5.14,0,0,1-.87-.46,5.09,5.09,0,0,1-.76-.63,4.94,4.94,0,0,1-.62-.75,6,6,0,0,1-.46-.87,5,5,0,0,1-.28-.93,4.85,4.85,0,0,1,0-2,5,5,0,0,1,.28-.93,6,6,0,0,1,.46-.87,4.94,4.94,0,0,1,.62-.75,5.09,5.09,0,0,1,.76-.63,5.14,5.14,0,0,1,.87-.46,5,5,0,0,1,3.82,0,5.46,5.46,0,0,1,.86.46,4.63,4.63,0,0,1,.76.63,4.48,4.48,0,0,1,.63.75,6,6,0,0,1,.46.87,5,5,0,0,1,.28.93,4.85,4.85,0,0,1,0,2,5,5,0,0,1-.28.93,6,6,0,0,1-.46.87,4.48,4.48,0,0,1-.63.75,4.63,4.63,0,0,1-.76.63,5.46,5.46,0,0,1-.86.46,5,5,0,0,1-.93.28A4.66,4.66,0,0,1,50,140Z"/><path class="cls-1" d="M66.67,140a4.59,4.59,0,0,1-1-.1,5.32,5.32,0,0,1-.94-.28,5.46,5.46,0,0,1-.86-.46,5.71,5.71,0,0,1-.76-.62A5.07,5.07,0,0,1,61.67,135a5.41,5.41,0,0,1,.09-1,5,5,0,0,1,.29-.93,4.74,4.74,0,0,1,.46-.86,5.1,5.1,0,0,1,.62-.77,5.71,5.71,0,0,1,.76-.62,5.46,5.46,0,0,1,.86-.46,5.32,5.32,0,0,1,.94-.28,5,5,0,0,1,2,0,5.22,5.22,0,0,1,.93.28,5.46,5.46,0,0,1,.86.46,4.73,4.73,0,0,1,1.38,1.39,4.74,4.74,0,0,1,.46.86,5,5,0,0,1,.29.93,5.41,5.41,0,0,1,.09,1,5.33,5.33,0,0,1-.09,1,5,5,0,0,1-.29.93,4.74,4.74,0,0,1-.46.86,4.73,4.73,0,0,1-1.38,1.39,5.46,5.46,0,0,1-.86.46,5.22,5.22,0,0,1-.93.28A4.73,4.73,0,0,1,66.67,140Z"/><path class="cls-1" d="M83.33,140a4.57,4.57,0,0,1-1-.1,5.08,5.08,0,0,1-.94-.28,5.46,5.46,0,0,1-.86-.46,4.57,4.57,0,0,1-.76-.62,5,5,0,0,1-.62-.76,5.24,5.24,0,0,1-.47-.87,5,5,0,0,1-.28-.93,4.66,4.66,0,0,1-.1-1,5,5,0,0,1,1.47-3.54,4.57,4.57,0,0,1,.76-.62,5.46,5.46,0,0,1,.86-.46,5.08,5.08,0,0,1,.94-.28,4.92,4.92,0,0,1,2,0,5.32,5.32,0,0,1,.94.28,5.46,5.46,0,0,1,.86.46A5,5,0,0,1,88.33,135a4.66,4.66,0,0,1-.1,1,5,5,0,0,1-.28.93,6,6,0,0,1-.46.87,4.86,4.86,0,0,1-1.38,1.38,5.46,5.46,0,0,1-.86.46,5.32,5.32,0,0,1-.94.28A4.59,4.59,0,0,1,83.33,140Z"/><path class="cls-1" d="M133.33,140a4.57,4.57,0,0,1-1-.1,5.08,5.08,0,0,1-.94-.28,5.46,5.46,0,0,1-.86-.46,4.57,4.57,0,0,1-.76-.62,5,5,0,0,1,0-7.08,5.13,5.13,0,0,1,.76-.62,5.46,5.46,0,0,1,.86-.46,5.08,5.08,0,0,1,.94-.28,4.92,4.92,0,0,1,1.95,0,5,5,0,0,1,.93.28,5.14,5.14,0,0,1,.87.46,5.71,5.71,0,0,1,.76.62,5,5,0,0,1-.76,7.7,5.14,5.14,0,0,1-.87.46,5,5,0,0,1-.93.28A4.59,4.59,0,0,1,133.33,140Z"/><path class="cls-1" d="M116.67,140a5,5,0,0,1-3.54-1.46,5.1,5.1,0,0,1-.62-.77,4.74,4.74,0,0,1-.46-.86,5,5,0,0,1-.29-.93,5.41,5.41,0,0,1-.09-1,5.33,5.33,0,0,1,.09-1,5,5,0,0,1,.29-.93,5.19,5.19,0,0,1,.46-.87,5,5,0,0,1,5.13-2.12,5.08,5.08,0,0,1,.94.28,5.46,5.46,0,0,1,.86.46,4.57,4.57,0,0,1,.76.62,5.57,5.57,0,0,1,.62.76,5.19,5.19,0,0,1,.46.87,5,5,0,0,1,.29.93,4.85,4.85,0,0,1,0,2,5,5,0,0,1-.29.93,4.74,4.74,0,0,1-.46.86,4.73,4.73,0,0,1-1.38,1.39,5.46,5.46,0,0,1-.86.46,5.08,5.08,0,0,1-.94.28A4.57,4.57,0,0,1,116.67,140Z"/><path class="cls-1" d="M100,140a4.66,4.66,0,0,1-1-.1,5,5,0,0,1-.93-.28,5.46,5.46,0,0,1-.86-.46,4.65,4.65,0,0,1-.77-.62,5,5,0,0,1-.62-.76,6,6,0,0,1-.46-.87,5,5,0,0,1-.28-.93,4.85,4.85,0,0,1,0-2,5,5,0,0,1,.28-.93,6,6,0,0,1,.46-.87,5,5,0,0,1,.62-.76,4.65,4.65,0,0,1,.77-.62,5.46,5.46,0,0,1,.86-.46,5,5,0,0,1,3.82,0,5.46,5.46,0,0,1,.86.46,5.07,5.07,0,0,1,1.39,1.38,6,6,0,0,1,.46.87,5,5,0,0,1,.28.93,4.85,4.85,0,0,1,0,2,5,5,0,0,1-.28.93,6,6,0,0,1-.46.87,5.07,5.07,0,0,1-1.39,1.38,5.46,5.46,0,0,1-.86.46,5,5,0,0,1-.93.28A4.66,4.66,0,0,1,100,140Z"/><path class="cls-1" d="M150,140a5,5,0,0,1-3.54-8.54,5,5,0,0,1,.76-.62,5.14,5.14,0,0,1,.87-.46,5,5,0,0,1,3.82,0,6,6,0,0,1,.87.46,5,5,0,0,1,.76,7.7A5.07,5.07,0,0,1,150,140Z"/></svg>